<svg width="159" height="41" viewBox="0 0 159 41" fill="none" xmlns="http://www.w3.org/2000/svg">
<path d="M48.6326 35.2444C47.803 35.2444 47.053 35.091 46.3826 34.7841C45.7121 34.4716 45.1809 34.0199 44.7888 33.429C44.4025 32.8381 44.2093 32.1137 44.2093 31.2557C44.2093 30.5171 44.3513 29.9091 44.6354 29.4319C44.9195 28.9546 45.303 28.5767 45.786 28.2983C46.269 28.0199 46.8087 27.8097 47.4053 27.6677C48.0019 27.5256 48.6099 27.4177 49.2292 27.3438C50.0133 27.2529 50.6496 27.179 51.1383 27.1222C51.6269 27.0597 51.982 26.9603 52.2036 26.8239C52.4252 26.6875 52.536 26.466 52.536 26.1591V26.0995C52.536 25.3552 52.3258 24.7785 51.9053 24.3694C51.4905 23.9603 50.8712 23.7557 50.0474 23.7557C49.1894 23.7557 48.5133 23.9461 48.019 24.3267C47.5303 24.7017 47.1922 25.1194 47.0047 25.5796L44.6099 25.0341C44.894 24.2387 45.3087 23.5966 45.8542 23.108C46.4053 22.6137 47.0388 22.2557 47.7547 22.0341C48.4707 21.8069 49.2235 21.6932 50.0133 21.6932C50.536 21.6932 51.09 21.7557 51.6752 21.8807C52.2661 22 52.8172 22.2216 53.3286 22.5455C53.8457 22.8694 54.269 23.3324 54.5985 23.9347C54.928 24.5313 55.0928 25.3069 55.0928 26.2614V34.9546H52.6042V33.1648H52.5019C52.3371 33.4944 52.09 33.8182 51.7604 34.1364C51.4309 34.4546 51.0076 34.7188 50.4905 34.929C49.9735 35.1392 49.3542 35.2444 48.6326 35.2444ZM49.1866 33.1989C49.8911 33.1989 50.4934 33.0597 50.9934 32.7813C51.4991 32.5029 51.8826 32.1392 52.144 31.6904C52.411 31.2358 52.5445 30.75 52.5445 30.233V28.5455C52.4536 28.6364 52.2775 28.7216 52.0161 28.8012C51.7604 28.875 51.4678 28.9404 51.1383 28.9972C50.8087 29.0483 50.4877 29.0966 50.1752 29.1421C49.8627 29.1819 49.6013 29.216 49.3911 29.2444C48.8968 29.3069 48.4451 29.412 48.036 29.5597C47.6326 29.7074 47.3087 29.9205 47.0644 30.1989C46.8258 30.4716 46.7065 30.8353 46.7065 31.2898C46.7065 31.9205 46.9394 32.3978 47.4053 32.7216C47.8712 33.0398 48.465 33.1989 49.1866 33.1989ZM58.487 34.9546V21.8637H60.9501V23.9432H61.0864C61.3251 23.2387 61.7455 22.6847 62.3478 22.2813C62.9557 21.8722 63.6432 21.6677 64.4103 21.6677C64.5694 21.6677 64.7569 21.6733 64.9728 21.6847C65.1944 21.6961 65.3677 21.7103 65.4927 21.7273V24.1648C65.3904 24.1364 65.2086 24.1052 64.9472 24.0711C64.6859 24.0313 64.4245 24.0114 64.1631 24.0114C63.5609 24.0114 63.0239 24.1392 62.5523 24.3949C62.0864 24.6449 61.7171 24.9944 61.4444 25.4432C61.1717 25.8864 61.0353 26.3921 61.0353 26.9603V34.9546H58.487ZM72.7434 35.2188C71.4763 35.2188 70.3854 34.9319 69.4707 34.358C68.5616 33.7785 67.8627 32.9802 67.3741 31.9631C66.8854 30.9461 66.6411 29.7813 66.6411 28.4688C66.6411 27.1392 66.8911 25.966 67.3911 24.9489C67.8911 23.9262 68.5957 23.1279 69.5047 22.554C70.4138 21.9802 71.4849 21.6932 72.7178 21.6932C73.7121 21.6932 74.5985 21.8779 75.3769 22.2472C76.1553 22.6108 76.7832 23.1222 77.2604 23.7813C77.7434 24.4404 78.0303 25.2103 78.1212 26.091H75.6411C75.5047 25.4773 75.1922 24.9489 74.7036 24.5057C74.2207 24.0625 73.5729 23.841 72.7604 23.841C72.0502 23.841 71.428 24.0285 70.894 24.4035C70.3655 24.7728 69.9536 25.3012 69.6582 25.9887C69.3627 26.6705 69.215 27.4773 69.215 28.4091C69.215 29.3637 69.3599 30.1875 69.6496 30.8807C69.9394 31.5739 70.3485 32.1108 70.8769 32.4915C71.411 32.8722 72.0388 33.0625 72.7604 33.0625C73.2434 33.0625 73.6809 32.9745 74.0729 32.7983C74.4707 32.6165 74.803 32.358 75.0701 32.0228C75.3428 31.6875 75.5332 31.2841 75.6411 30.8125H78.1212C78.0303 31.6591 77.7547 32.4148 77.2945 33.0796C76.8343 33.7444 76.2178 34.2671 75.4451 34.6478C74.678 35.0285 73.7775 35.2188 72.7434 35.2188ZM83.3947 27.1819V34.9546H80.8464V17.5H83.3606V23.9944H83.5225C83.8293 23.2898 84.2981 22.7302 84.9288 22.3154C85.5594 21.9006 86.3833 21.6932 87.4003 21.6932C88.2981 21.6932 89.0822 21.8779 89.7526 22.2472C90.4288 22.6165 90.9515 23.1677 91.3208 23.9006C91.6958 24.6279 91.8833 25.537 91.8833 26.6279V34.9546H89.335V26.9347C89.335 25.9745 89.0878 25.2302 88.5935 24.7017C88.0992 24.1677 87.4117 23.9006 86.531 23.9006C85.9288 23.9006 85.389 24.0285 84.9117 24.2841C84.4401 24.5398 84.068 24.9148 83.7952 25.4091C83.5282 25.8978 83.3947 26.4887 83.3947 27.1819ZM100.926 35.2188C99.6361 35.2188 98.5253 34.9432 97.5935 34.3921C96.6674 33.8353 95.9515 33.054 95.4458 32.0483C94.9458 31.037 94.6958 29.8523 94.6958 28.4944C94.6958 27.1535 94.9458 25.9716 95.4458 24.9489C95.9515 23.9262 96.656 23.1279 97.5594 22.554C98.4685 21.9802 99.531 21.6932 100.747 21.6932C101.486 21.6932 102.201 21.8154 102.895 22.0597C103.588 22.304 104.21 22.6875 104.761 23.2103C105.312 23.733 105.747 24.412 106.065 25.2472C106.383 26.0767 106.542 27.0853 106.542 28.2728V29.1762H96.1361V27.2671H104.045C104.045 26.5966 103.909 26.0029 103.636 25.4858C103.363 24.9631 102.98 24.5512 102.486 24.25C101.997 23.9489 101.423 23.7983 100.764 23.7983C100.048 23.7983 99.4231 23.9745 98.889 24.3267C98.3606 24.6733 97.9515 25.1279 97.6617 25.6904C97.3776 26.2472 97.2356 26.8523 97.2356 27.5057V28.9972C97.2356 29.8722 97.389 30.6165 97.6958 31.2302C98.0083 31.8438 98.443 32.3125 98.9998 32.6364C99.5566 32.9546 100.207 33.1137 100.951 33.1137C101.434 33.1137 101.875 33.0455 102.273 32.9091C102.67 32.7671 103.014 32.5569 103.304 32.2785C103.594 32 103.815 31.6563 103.969 31.2472L106.38 31.6819C106.187 32.3921 105.841 33.0142 105.341 33.5483C104.846 34.0767 104.224 34.4887 103.474 34.7841C102.73 35.0739 101.88 35.2188 100.926 35.2188ZM114.858 40.1364C113.819 40.1364 112.924 40 112.174 39.7273C111.429 39.4546 110.822 39.0938 110.35 38.6449C109.878 38.1961 109.526 37.7046 109.293 37.1705L111.483 36.2671C111.637 36.5171 111.841 36.7813 112.097 37.0597C112.358 37.3438 112.711 37.5853 113.154 37.7841C113.603 37.983 114.179 38.0824 114.884 38.0824C115.85 38.0824 116.648 37.8466 117.279 37.375C117.91 36.9091 118.225 36.1648 118.225 35.1421V32.5682H118.063C117.91 32.8466 117.688 33.1563 117.398 33.4972C117.114 33.8381 116.722 34.1336 116.222 34.3836C115.722 34.6336 115.072 34.7586 114.27 34.7586C113.236 34.7586 112.304 34.5171 111.475 34.0341C110.651 33.5455 109.998 32.8267 109.515 31.8779C109.037 30.9233 108.799 29.75 108.799 28.358C108.799 26.966 109.035 25.7728 109.506 24.7785C109.983 23.7841 110.637 23.0228 111.466 22.4944C112.296 21.9603 113.236 21.6932 114.287 21.6932C115.1 21.6932 115.756 21.8296 116.256 22.1023C116.756 22.3694 117.145 22.6819 117.424 23.0398C117.708 23.3978 117.927 23.7131 118.08 23.9858H118.268V21.8637H120.765V35.2444C120.765 36.3694 120.503 37.2927 119.981 38.0142C119.458 38.7358 118.75 39.2699 117.858 39.6165C116.972 39.9631 115.972 40.1364 114.858 40.1364ZM114.833 32.6449C115.566 32.6449 116.185 32.4745 116.691 32.1336C117.202 31.787 117.589 31.2927 117.85 30.6506C118.117 30.0029 118.25 29.2273 118.25 28.3239C118.25 27.4432 118.12 26.6677 117.858 25.9972C117.597 25.3267 117.214 24.804 116.708 24.429C116.202 24.0483 115.577 23.858 114.833 23.858C114.066 23.858 113.427 24.0569 112.915 24.4546C112.404 24.8466 112.018 25.3807 111.756 26.0569C111.5 26.733 111.373 27.4887 111.373 28.3239C111.373 29.1819 111.503 29.9347 111.765 30.5824C112.026 31.2302 112.412 31.7358 112.924 32.0995C113.441 32.4631 114.077 32.6449 114.833 32.6449ZM129.671 40.1364C128.631 40.1364 127.736 40 126.986 39.7273C126.242 39.4546 125.634 39.0938 125.162 38.6449C124.691 38.1961 124.339 37.7046 124.106 37.1705L126.296 36.2671C126.449 36.5171 126.654 36.7813 126.91 37.0597C127.171 37.3438 127.523 37.5853 127.966 37.7841C128.415 37.983 128.992 38.0824 129.697 38.0824C130.662 38.0824 131.461 37.8466 132.091 37.375C132.722 36.9091 133.037 36.1648 133.037 35.1421V32.5682H132.875C132.722 32.8466 132.5 33.1563 132.211 33.4972C131.927 33.8381 131.535 34.1336 131.035 34.3836C130.535 34.6336 129.884 34.7586 129.083 34.7586C128.049 34.7586 127.117 34.5171 126.287 34.0341C125.464 33.5455 124.81 32.8267 124.327 31.8779C123.85 30.9233 123.611 29.75 123.611 28.358C123.611 26.966 123.847 25.7728 124.319 24.7785C124.796 23.7841 125.449 23.0228 126.279 22.4944C127.108 21.9603 128.049 21.6932 129.1 21.6932C129.912 21.6932 130.569 21.8296 131.069 22.1023C131.569 22.3694 131.958 22.6819 132.236 23.0398C132.52 23.3978 132.739 23.7131 132.893 23.9858H133.08V21.8637H135.577V35.2444C135.577 36.3694 135.316 37.2927 134.793 38.0142C134.27 38.7358 133.563 39.2699 132.671 39.6165C131.785 39.9631 130.785 40.1364 129.671 40.1364ZM129.645 32.6449C130.378 32.6449 130.998 32.4745 131.503 32.1336C132.015 31.787 132.401 31.2927 132.662 30.6506C132.929 30.0029 133.063 29.2273 133.063 28.3239C133.063 27.4432 132.932 26.6677 132.671 25.9972C132.41 25.3267 132.026 24.804 131.52 24.429C131.015 24.0483 130.39 23.858 129.645 23.858C128.878 23.858 128.239 24.0569 127.728 24.4546C127.216 24.8466 126.83 25.3807 126.569 26.0569C126.313 26.733 126.185 27.4887 126.185 28.3239C126.185 29.1819 126.316 29.9347 126.577 30.5824C126.839 31.2302 127.225 31.7358 127.736 32.0995C128.253 32.4631 128.89 32.6449 129.645 32.6449ZM138.995 34.9546V21.8637H141.543V34.9546H138.995ZM140.282 19.8438C139.839 19.8438 139.458 19.6961 139.14 19.4006C138.827 19.0995 138.671 18.7415 138.671 18.3267C138.671 17.9063 138.827 17.5483 139.14 17.2529C139.458 16.9517 139.839 16.8012 140.282 16.8012C140.725 16.8012 141.103 16.9517 141.415 17.2529C141.733 17.5483 141.893 17.9063 141.893 18.3267C141.893 18.7415 141.733 19.0995 141.415 19.4006C141.103 19.6961 140.725 19.8438 140.282 19.8438ZM150.486 35.2188C149.258 35.2188 148.187 34.9375 147.273 34.375C146.358 33.8125 145.648 33.0256 145.142 32.0142C144.636 31.0029 144.383 29.8211 144.383 28.4688C144.383 27.1108 144.636 25.9233 145.142 24.9063C145.648 23.8892 146.358 23.0995 147.273 22.537C148.187 21.9745 149.258 21.6932 150.486 21.6932C151.713 21.6932 152.784 21.9745 153.699 22.537C154.613 23.0995 155.324 23.8892 155.829 24.9063C156.335 25.9233 156.588 27.1108 156.588 28.4688C156.588 29.8211 156.335 31.0029 155.829 32.0142C155.324 33.0256 154.613 33.8125 153.699 34.375C152.784 34.9375 151.713 35.2188 150.486 35.2188ZM150.494 33.0796C151.29 33.0796 151.949 32.8694 152.471 32.4489C152.994 32.0285 153.38 31.4688 153.63 30.7699C153.886 30.0711 154.014 29.3012 154.014 28.4603C154.014 27.625 153.886 26.858 153.63 26.1591C153.38 25.4546 152.994 24.8892 152.471 24.4631C151.949 24.037 151.29 23.8239 150.494 23.8239C149.693 23.8239 149.028 24.037 148.5 24.4631C147.977 24.8892 147.588 25.4546 147.332 26.1591C147.082 26.858 146.957 27.625 146.957 28.4603C146.957 29.3012 147.082 30.0711 147.332 30.7699C147.588 31.4688 147.977 32.0285 148.5 32.4489C149.028 32.8694 149.693 33.0796 150.494 33.0796Z" fill="#E8EAED"/>
<path d="M23.7998 34.9545V0.0454102H36.8907C39.5725 0.0454102 41.8225 0.54541 43.6407 1.54541C45.4702 2.54541 46.8509 3.92041 47.7827 5.67041C48.7259 7.40901 49.1975 9.38631 49.1975 11.6022C49.1975 13.8408 48.7259 15.8295 47.7827 17.5681C46.8396 19.3067 45.4475 20.6761 43.6066 21.6761C41.7657 22.6647 39.4987 23.159 36.8055 23.159H28.1293V17.9601H35.9532C37.5214 17.9601 38.8055 17.6874 39.8055 17.142C40.8055 16.5965 41.5441 15.8465 42.0214 14.892C42.51 13.9374 42.7543 12.8408 42.7543 11.6022C42.7543 10.3636 42.51 9.27261 42.0214 8.32951C41.5441 7.38631 40.7998 6.65331 39.7884 6.13061C38.7884 5.59651 37.4987 5.32951 35.9191 5.32951H30.1237V34.9545H23.7998Z" fill="#38B772"/>
<path d="M30.1089 17.0142H23.7998V24.043H30.1089V17.0142Z" fill="#1B1B1B"/>
<path d="M0.245117 17.9692H30.8384V23.1606H5.43652C2.56939 23.1606 0.245117 20.8363 0.245117 17.9692Z" fill="#38B772"/>
</svg>
