<svg width="159" height="41" viewBox="0 0 159 41" fill="none" xmlns="http://www.w3.org/2000/svg">
<path d="M49.1443 35.2253C48.3148 35.2253 47.5648 35.0719 46.8943 34.7651C46.2239 34.4526 45.6926 34.0009 45.3006 33.41C44.9142 32.8191 44.721 32.0946 44.721 31.2367C44.721 30.498 44.8631 29.8901 45.1472 29.4128C45.4312 28.9355 45.8148 28.5577 46.2977 28.2793C46.7807 28.0009 47.3204 27.7907 47.917 27.6486C48.5136 27.5066 49.1216 27.3986 49.7409 27.3248C50.525 27.2338 51.1614 27.16 51.65 27.1032C52.1386 27.0407 52.4937 26.9412 52.7153 26.8049C52.9369 26.6685 53.0477 26.4469 53.0477 26.1401V26.0804C53.0477 25.3361 52.8375 24.7594 52.417 24.3503C52.0023 23.9412 51.3829 23.7367 50.5591 23.7367C49.7011 23.7367 49.025 23.927 48.5307 24.3077C48.042 24.6827 47.704 25.1003 47.5165 25.5605L45.1216 25.0151C45.4057 24.2196 45.8204 23.5776 46.3659 23.089C46.917 22.5946 47.5506 22.2367 48.2665 22.0151C48.9824 21.7878 49.7352 21.6742 50.525 21.6742C51.0477 21.6742 51.6017 21.7367 52.1869 21.8617C52.7778 21.981 53.329 22.2026 53.8403 22.5265C54.3574 22.8503 54.7807 23.3134 55.1102 23.9157C55.4398 24.5123 55.6045 25.2878 55.6045 26.2424V34.9355H53.1159V33.1458H53.0136C52.8489 33.4753 52.6017 33.7992 52.2722 34.1174C51.9426 34.4355 51.5193 34.6998 51.0023 34.91C50.4852 35.1202 49.8659 35.2253 49.1443 35.2253ZM49.6983 33.1799C50.4028 33.1799 51.0051 33.0407 51.5051 32.7623C52.0108 32.4838 52.3943 32.1202 52.6557 31.6713C52.9227 31.2168 53.0562 30.731 53.0562 30.214V28.5265C52.9653 28.6174 52.7892 28.7026 52.5278 28.7821C52.2722 28.856 51.9795 28.9213 51.65 28.9782C51.3204 29.0293 50.9994 29.0776 50.6869 29.123C50.3744 29.1628 50.1131 29.1969 49.9028 29.2253C49.4085 29.2878 48.9568 29.3929 48.5477 29.5407C48.1443 29.6884 47.8204 29.9015 47.5761 30.1799C47.3375 30.4526 47.2182 30.8162 47.2182 31.2708C47.2182 31.9015 47.4511 32.3787 47.917 32.7026C48.3829 33.0208 48.9767 33.1799 49.6983 33.1799ZM58.9987 34.9355V21.8446H61.4618V23.9242H61.5981C61.8368 23.2196 62.2572 22.6657 62.8595 22.2623C63.4675 21.8532 64.155 21.6486 64.922 21.6486C65.0811 21.6486 65.2686 21.6543 65.4845 21.6657C65.7061 21.677 65.8794 21.6912 66.0044 21.7083V24.1458C65.9021 24.1174 65.7203 24.0861 65.4589 24.052C65.1976 24.0123 64.9362 23.9924 64.6748 23.9924C64.0726 23.9924 63.5356 24.1202 63.0641 24.3759C62.5981 24.6259 62.2288 24.9753 61.9561 25.4242C61.6834 25.8674 61.547 26.373 61.547 26.9412V34.9355H58.9987ZM73.2551 35.1998C71.9881 35.1998 70.8972 34.9128 69.9824 34.339C69.0733 33.7594 68.3744 32.9611 67.8858 31.9441C67.3972 30.927 67.1528 29.7623 67.1528 28.4498C67.1528 27.1202 67.4028 25.9469 67.9028 24.9299C68.4028 23.9071 69.1074 23.1088 70.0165 22.535C70.9256 21.9611 71.9966 21.6742 73.2295 21.6742C74.2239 21.6742 75.1102 21.8588 75.8886 22.2282C76.667 22.5918 77.2949 23.1032 77.7722 23.7623C78.2551 24.4213 78.542 25.1912 78.6329 26.0719H76.1528C76.0165 25.4583 75.704 24.9299 75.2153 24.4867C74.7324 24.0435 74.0847 23.8219 73.2722 23.8219C72.5619 23.8219 71.9398 24.0094 71.4057 24.3844C70.8773 24.7537 70.4653 25.2821 70.1699 25.9696C69.8744 26.6515 69.7267 27.4583 69.7267 28.3901C69.7267 29.3446 69.8716 30.1685 70.1614 30.8617C70.4511 31.5549 70.8602 32.0918 71.3886 32.4725C71.9227 32.8532 72.5506 33.0435 73.2722 33.0435C73.7551 33.0435 74.1926 32.9554 74.5847 32.7793C74.9824 32.5975 75.3148 32.339 75.5818 32.0037C75.8545 31.6685 76.0449 31.2651 76.1528 30.7935H78.6329C78.542 31.6401 78.2665 32.3958 77.8062 33.0605C77.346 33.7253 76.7295 34.248 75.9568 34.6287C75.1898 35.0094 74.2892 35.1998 73.2551 35.1998ZM83.9064 27.1628V34.9355H81.3581V17.481H83.8723V23.9753H84.0342C84.341 23.2708 84.8098 22.7111 85.4405 22.2963C86.0712 21.8816 86.895 21.6742 87.9121 21.6742C88.8098 21.6742 89.5939 21.8588 90.2643 22.2282C90.9405 22.5975 91.4632 23.1486 91.8325 23.8816C92.2075 24.6088 92.395 25.5179 92.395 26.6088V34.9355H89.8467V26.9157C89.8467 25.9554 89.5996 25.2111 89.1052 24.6827C88.6109 24.1486 87.9234 23.8816 87.0427 23.8816C86.4405 23.8816 85.9007 24.0094 85.4234 24.2651C84.9518 24.5208 84.5797 24.8958 84.307 25.3901C84.0399 25.8787 83.9064 26.4696 83.9064 27.1628ZM101.438 35.1998C100.148 35.1998 99.0371 34.9242 98.1052 34.373C97.1791 33.8162 96.4632 33.035 95.9575 32.0293C95.4575 31.0179 95.2075 29.8333 95.2075 28.4753C95.2075 27.1344 95.4575 25.9526 95.9575 24.9299C96.4632 23.9071 97.1677 23.1088 98.0712 22.535C98.9802 21.9611 100.043 21.6742 101.259 21.6742C101.997 21.6742 102.713 21.7963 103.406 22.0407C104.1 22.285 104.722 22.6685 105.273 23.1912C105.824 23.714 106.259 24.3929 106.577 25.2282C106.895 26.0577 107.054 27.0662 107.054 28.2537V29.1571H96.6479V27.248H104.557C104.557 26.5776 104.421 25.9838 104.148 25.4668C103.875 24.9441 103.492 24.5321 102.997 24.231C102.509 23.9299 101.935 23.7793 101.276 23.7793C100.56 23.7793 99.9348 23.9554 99.4007 24.3077C98.8723 24.6543 98.4632 25.1088 98.1734 25.6713C97.8893 26.2282 97.7473 26.8333 97.7473 27.4867V28.9782C97.7473 29.8532 97.9007 30.5975 98.2075 31.2111C98.52 31.8248 98.9547 32.2935 99.5115 32.6174C100.068 32.9355 100.719 33.0946 101.463 33.0946C101.946 33.0946 102.386 33.0265 102.784 32.8901C103.182 32.748 103.526 32.5378 103.815 32.2594C104.105 31.981 104.327 31.6373 104.48 31.2282L106.892 31.6628C106.699 32.373 106.352 32.9952 105.852 33.5293C105.358 34.0577 104.736 34.4696 103.986 34.7651C103.242 35.0549 102.392 35.1998 101.438 35.1998ZM115.37 40.1174C114.33 40.1174 113.436 39.981 112.686 39.7083C111.941 39.4355 111.333 39.0748 110.862 38.6259C110.39 38.177 110.038 37.6855 109.805 37.1515L111.995 36.248C112.149 36.498 112.353 36.7623 112.609 37.0407C112.87 37.3248 113.222 37.5662 113.666 37.7651C114.114 37.964 114.691 38.0634 115.396 38.0634C116.362 38.0634 117.16 37.8276 117.791 37.356C118.421 36.8901 118.737 36.1458 118.737 35.123V32.5492H118.575C118.421 32.8276 118.2 33.1373 117.91 33.4782C117.626 33.8191 117.234 34.1145 116.734 34.3645C116.234 34.6145 115.583 34.7395 114.782 34.7395C113.748 34.7395 112.816 34.498 111.987 34.0151C111.163 33.5265 110.509 32.8077 110.026 31.8588C109.549 30.9043 109.311 29.731 109.311 28.339C109.311 26.9469 109.546 25.7537 110.018 24.7594C110.495 23.7651 111.149 23.0037 111.978 22.4753C112.808 21.9412 113.748 21.6742 114.799 21.6742C115.612 21.6742 116.268 21.8105 116.768 22.0833C117.268 22.3503 117.657 22.6628 117.936 23.0208C118.22 23.3787 118.438 23.6941 118.592 23.9668H118.779V21.8446H121.276V35.2253C121.276 36.3503 121.015 37.2736 120.492 37.9952C119.97 38.7168 119.262 39.2509 118.37 39.5975C117.484 39.9441 116.484 40.1174 115.37 40.1174ZM115.345 32.6259C116.078 32.6259 116.697 32.4554 117.203 32.1145C117.714 31.7679 118.1 31.2736 118.362 30.6316C118.629 29.9838 118.762 29.2083 118.762 28.3049C118.762 27.4242 118.632 26.6486 118.37 25.9782C118.109 25.3077 117.725 24.785 117.22 24.41C116.714 24.0293 116.089 23.839 115.345 23.839C114.578 23.839 113.938 24.0378 113.427 24.4355C112.916 24.8276 112.529 25.3617 112.268 26.0378C112.012 26.714 111.884 27.4696 111.884 28.3049C111.884 29.1628 112.015 29.9157 112.276 30.5634C112.538 31.2111 112.924 31.7168 113.436 32.0804C113.953 32.4441 114.589 32.6259 115.345 32.6259ZM130.183 40.1174C129.143 40.1174 128.248 39.981 127.498 39.7083C126.754 39.4355 126.146 39.0748 125.674 38.6259C125.203 38.177 124.85 37.6855 124.617 37.1515L126.808 36.248C126.961 36.498 127.166 36.7623 127.421 37.0407C127.683 37.3248 128.035 37.5662 128.478 37.7651C128.927 37.964 129.504 38.0634 130.208 38.0634C131.174 38.0634 131.972 37.8276 132.603 37.356C133.234 36.8901 133.549 36.1458 133.549 35.123V32.5492H133.387C133.234 32.8276 133.012 33.1373 132.722 33.4782C132.438 33.8191 132.046 34.1145 131.546 34.3645C131.046 34.6145 130.396 34.7395 129.595 34.7395C128.561 34.7395 127.629 34.498 126.799 34.0151C125.975 33.5265 125.322 32.8077 124.839 31.8588C124.362 30.9043 124.123 29.731 124.123 28.339C124.123 26.9469 124.359 25.7537 124.83 24.7594C125.308 23.7651 125.961 23.0037 126.791 22.4753C127.62 21.9412 128.561 21.6742 129.612 21.6742C130.424 21.6742 131.08 21.8105 131.58 22.0833C132.08 22.3503 132.47 22.6628 132.748 23.0208C133.032 23.3787 133.251 23.6941 133.404 23.9668H133.592V21.8446H136.089V35.2253C136.089 36.3503 135.828 37.2736 135.305 37.9952C134.782 38.7168 134.075 39.2509 133.183 39.5975C132.296 39.9441 131.296 40.1174 130.183 40.1174ZM130.157 32.6259C130.89 32.6259 131.509 32.4554 132.015 32.1145C132.526 31.7679 132.913 31.2736 133.174 30.6316C133.441 29.9838 133.575 29.2083 133.575 28.3049C133.575 27.4242 133.444 26.6486 133.183 25.9782C132.921 25.3077 132.538 24.785 132.032 24.41C131.526 24.0293 130.901 23.839 130.157 23.839C129.39 23.839 128.751 24.0378 128.239 24.4355C127.728 24.8276 127.342 25.3617 127.08 26.0378C126.825 26.714 126.697 27.4696 126.697 28.3049C126.697 29.1628 126.828 29.9157 127.089 30.5634C127.35 31.2111 127.737 31.7168 128.248 32.0804C128.765 32.4441 129.401 32.6259 130.157 32.6259ZM139.507 34.9355V21.8446H142.055V34.9355H139.507ZM140.793 19.8248C140.35 19.8248 139.97 19.677 139.651 19.3816C139.339 19.0804 139.183 18.7225 139.183 18.3077C139.183 17.8873 139.339 17.5293 139.651 17.2338C139.97 16.9327 140.35 16.7821 140.793 16.7821C141.237 16.7821 141.614 16.9327 141.927 17.2338C142.245 17.5293 142.404 17.8873 142.404 18.3077C142.404 18.7225 142.245 19.0804 141.927 19.3816C141.614 19.677 141.237 19.8248 140.793 19.8248ZM150.997 35.1998C149.77 35.1998 148.699 34.9185 147.784 34.356C146.869 33.7935 146.159 33.0066 145.654 31.9952C145.148 30.9838 144.895 29.802 144.895 28.4498C144.895 27.0918 145.148 25.9043 145.654 24.8873C146.159 23.8702 146.869 23.0804 147.784 22.5179C148.699 21.9554 149.77 21.6742 150.997 21.6742C152.225 21.6742 153.296 21.9554 154.21 22.5179C155.125 23.0804 155.835 23.8702 156.341 24.8873C156.847 25.9043 157.1 27.0918 157.1 28.4498C157.1 29.802 156.847 30.9838 156.341 31.9952C155.835 33.0066 155.125 33.7935 154.21 34.356C153.296 34.9185 152.225 35.1998 150.997 35.1998ZM151.006 33.0605C151.801 33.0605 152.46 32.8503 152.983 32.4299C153.506 32.0094 153.892 31.4498 154.142 30.7509C154.398 30.052 154.526 29.2821 154.526 28.4412C154.526 27.606 154.398 26.839 154.142 26.1401C153.892 25.4355 153.506 24.8702 152.983 24.4441C152.46 24.0179 151.801 23.8049 151.006 23.8049C150.205 23.8049 149.54 24.0179 149.011 24.4441C148.489 24.8702 148.1 25.4355 147.844 26.1401C147.594 26.839 147.469 27.606 147.469 28.4412C147.469 29.2821 147.594 30.052 147.844 30.7509C148.1 31.4498 148.489 32.0094 149.011 32.4299C149.54 32.8503 150.205 33.0605 151.006 33.0605Z" fill="#464846"/>
<path d="M24.3115 34.9355V0.0263672H37.4024C40.0842 0.0263672 42.3342 0.526367 44.1524 1.52637C45.9819 2.52637 47.3626 3.90137 48.2944 5.65137C49.2376 7.38997 49.7092 9.36727 49.7092 11.5832C49.7092 13.8218 49.2376 15.8105 48.2944 17.5491C47.3513 19.2877 45.9592 20.6571 44.1183 21.6571C42.2774 22.6457 40.0104 23.14 37.3172 23.14H28.641V17.9411H36.4649C38.0331 17.9411 39.3172 17.6684 40.3172 17.123C41.3172 16.5775 42.0558 15.8275 42.5331 14.873C43.0217 13.9184 43.266 12.8218 43.266 11.5832C43.266 10.3446 43.0217 9.25357 42.5331 8.31047C42.0558 7.36727 41.3115 6.63427 40.3001 6.11157C39.3001 5.57747 38.0104 5.31047 36.4308 5.31047H30.6354V34.9355H24.3115Z" fill="#38B772"/>
<path d="M30.6206 16.9951H24.3115V24.0239H30.6206V16.9951Z" fill="#ECEDEE" fill-opacity="0.9"/>
<path d="M0.756836 17.9502H31.3501V23.1416H5.94824C3.08111 23.1416 0.756836 20.8173 0.756836 17.9502Z" fill="#38B772"/>
</svg>
